<svg width="196.72" height="196.72" xmlns="http://www.w3.org/2000/svg">

 <g>
  <title>background</title>
  <rect fill="none" id="canvas_background" height="402" width="582" y="-1" x="-1"/>
 </g>
 <g>
  <title>Layer 1</title>
  <g stroke="null" id="svg_1">
   <g stroke="null" id="svg_2">
    <path stroke="null" id="svg_3" fill="#4a5699" d="m153.654916,102.627371a55.156604,55.156604 0 0 1 -54.593782,54.586072c-29.96066,0.254427 -54.339355,-25.003196 -54.586072,-54.586072c-0.107939,-12.551713 -19.583139,-12.567132 -19.4752,0a75.556992,75.556992 0 0 0 20.623975,51.278526c13.014306,13.877815 31.348442,21.587712 50.160591,22.697937c19.166804,1.125645 37.855595,-6.167918 52.296232,-18.503753s22.690227,-30.307606 24.72564,-48.980977c0.231297,-2.158771 0.300686,-4.340672 0.323816,-6.507153c0.100229,-12.567132 -19.367262,-12.551713 -19.4752,0l0,0.01542z"/>
    <path stroke="null" id="svg_4" fill="#c45fa0" d="m44.475063,99.119368a55.156604,55.156604 0 0 1 54.586072,-54.593782c12.551713,-0.107939 12.567132,-19.583139 0,-19.4752a75.395084,75.395084 0 0 0 -52.003256,21.333285c-14.155371,13.715907 -21.896108,33.137138 -22.058016,52.735697c-0.107939,12.559422 19.367262,12.544003 19.4752,0z"/>
    <path stroke="null" id="svg_5" fill="#e5594f" d="m81.922033,116.651674c-8.157071,-10.878665 -6.938907,-23.199081 3.191897,-31.965234c9.490883,-8.187911 23.530606,-5.088532 31.556609,4.888075c3.338385,4.140215 10.323552,3.454034 13.769876,0c4.055406,-4.047696 3.322966,-9.637371 0,-13.769876c-13.430641,-16.691927 -39.096889,-19.968634 -56.282249,-7.100815c-17.871542,13.399801 -22.744197,39.513223 -9.066839,57.777969c3.176478,4.240443 8.342109,6.406925 13.322702,3.492583c4.178764,-2.451747 6.676771,-9.066839 3.492583,-13.322702l0.01542,0z"/>
    <path stroke="null" id="svg_6" fill="#f39a2b" d="m116.207946,88.973144c4.625938,6.167918 5.813262,10.793856 5.150211,17.95635c0.107939,-0.878928 0.061679,-0.71702 -0.138778,0.478014c-0.200457,1.017706 -0.493433,2.019993 -0.77099,3.01457a10.847825,10.847825 0 0 1 -1.46488,3.423194c-1.804116,3.415484 -3.538843,5.150211 -6.815549,7.786996c-4.147925,3.330676 -3.454034,10.323552 0,13.769876c4.047696,4.055406 9.637371,3.322966 13.762166,0c16.699637,-13.430641 19.976344,-39.096889 7.108525,-56.282249c-3.176478,-4.240443 -8.342109,-6.406925 -13.322702,-3.492583c-4.186474,2.451747 -6.684481,9.066839 -3.492583,13.322702l-0.01542,0.02313z"/>
   </g>
  </g>
 </g>
</svg>
